# xmcd
#
# Track frame offsets: 
#        150
#        27925
#        43916
#        84312
#        127110
#        151888
#        185143
#
# Disc length: 2783 seconds
#
# Revision: 0
# Processed by: cddbd v1.5.2PL0 Copyright (c) Steve Scherf et al.
# Submitted via: ExactAudioCopy v1.0b1
#
DISCID=590add07
DTITLE=Big Mama Thornton - The Complete Vanguard Recordin CD3
DYEAR=2000
DGENRE=Blues
TTITLE0=Goodbye Baby
TTITLE1=Gonna Leave You
TTITLE2=Mixed up Feeling
TTITLE3=Special
TTITLE4=Going Fishing
TTITLE5=Big Mama Swings
TTITLE6=Happy Me
EXTD=
EXTT0=
EXTT1=
EXTT2=
EXTT3=
EXTT4=
EXTT5=
EXTT6=
PLAYORDER=
